<svg width="17" height="8" viewBox="0 0 17 8" fill="none" xmlns="http://www.w3.org/2000/svg">
<path d="M3.28587 6.07981C3.31182 6.17665 3.32266 6.26743 3.3184 6.35215C3.31506 6.43527 3.30119 6.51178 3.27678 6.58168C3.25238 6.65158 3.21869 6.71452 3.17573 6.77052C3.13277 6.82652 3.0859 6.87547 3.03512 6.91739C2.98434 6.9593 2.93046 6.99463 2.87346 7.02339C2.81771 7.0518 2.76343 7.07309 2.71061 7.08724L0.818372 7.59426L0.68694 7.10376L2.57917 6.59673C2.6735 6.57146 2.73904 6.52424 2.77577 6.45509C2.81377 6.38559 2.8203 6.30431 2.79536 6.21124C2.78323 6.16596 2.76519 6.12631 2.74124 6.09228C2.7173 6.05826 2.68841 6.03095 2.65459 6.01036C2.62202 5.98943 2.58485 5.97647 2.54307 5.97149C2.50255 5.96617 2.45966 5.96958 2.41438 5.98171L1.28621 6.284C1.20697 6.30523 1.11774 6.31432 1.01851 6.31125C0.918948 6.30692 0.821123 6.28393 0.725037 6.24228C0.630208 6.20028 0.542733 6.13543 0.462612 6.04771C0.383748 5.95965 0.324601 5.84204 0.285172 5.69489C0.245742 5.54774 0.238331 5.41694 0.262937 5.30251C0.288464 5.18648 0.331791 5.08658 0.392919 5.0028C0.454968 4.91742 0.528192 4.8486 0.612591 4.79633C0.696654 4.7428 0.778303 4.70542 0.857539 4.68419L2.52716 4.23682L2.65859 4.72732L0.98897 5.1747C0.895899 5.19964 0.830534 5.24748 0.792875 5.31823C0.756474 5.38865 0.750743 5.47039 0.775681 5.56346C0.800956 5.65779 0.846791 5.72571 0.913186 5.76724C0.980501 5.80716 1.06069 5.81466 1.15377 5.78972L2.28194 5.48743L2.28571 5.48642C2.33887 5.47352 2.39686 5.46607 2.45968 5.46407C2.52216 5.4608 2.58604 5.46526 2.65131 5.47742C2.71783 5.48925 2.78324 5.50947 2.84752 5.53808C2.91147 5.56543 2.97148 5.60327 3.02757 5.6516C3.08491 5.69959 3.13581 5.75875 3.18027 5.82906C3.22472 5.89938 3.25992 5.98296 3.28587 6.07981ZM3.97231 5.03449L5.69475 4.57297L5.39852 3.46744L5.88903 3.336L6.61393 6.04135L6.12342 6.17278L5.82719 5.06725L4.10475 5.52878L4.40098 6.63431L3.91047 6.76574L3.18557 4.06039L3.67608 3.92896L3.97231 5.03449ZM9.41155 3.36676C9.44154 3.4787 9.4545 3.5824 9.45042 3.67785C9.44634 3.7733 9.4295 3.86139 9.39991 3.94211C9.37124 4.02124 9.33249 4.09296 9.28367 4.15727C9.23484 4.22157 9.18069 4.27855 9.1212 4.32819C9.06262 4.37623 9.00061 4.41644 8.93514 4.44881C8.87093 4.48085 8.80864 4.50495 8.74827 4.52113L10.0098 5.13144L9.25136 5.33465L7.99175 4.72383L7.63896 4.81836L7.50753 4.32785L8.61684 4.03062C8.67712 4.00907 8.72971 3.9815 8.77463 3.9479C8.82047 3.9127 8.85691 3.8726 8.88394 3.82761C8.91224 3.78229 8.92988 3.7324 8.93686 3.67796C8.9435 3.62226 8.93823 3.56234 8.92104 3.49819L8.83814 3.1888C8.83072 3.16113 8.82139 3.14139 8.81014 3.12957C8.7998 3.11616 8.78814 3.10783 8.77513 3.10458C8.76305 3.09973 8.75055 3.09836 8.73763 3.10047C8.72598 3.10225 8.71512 3.10448 8.70506 3.10718L7.08638 3.5409L7.67984 5.75574L7.18933 5.88717L6.53066 3.42897C6.52156 3.39501 6.51925 3.36125 6.52374 3.3277C6.52823 3.29414 6.53813 3.26318 6.55345 3.23481C6.57002 3.20611 6.59172 3.18142 6.61853 3.16076C6.64535 3.14009 6.67636 3.12504 6.71158 3.1156L8.57363 2.61667C8.68305 2.58735 8.78088 2.5827 8.86713 2.60273C8.95304 2.6215 9.02735 2.65483 9.09006 2.70273C9.15369 2.74904 9.20484 2.80409 9.2435 2.86787C9.28341 2.93131 9.31146 2.99322 9.32764 3.05359L9.41155 3.36676ZM12.3132 3.32932L10.7644 3.74434L10.6319 3.25006L12.1808 2.83504L12.3132 3.32932ZM12.8302 4.37571L11.0606 4.84987C10.9927 4.86807 10.9153 4.87601 10.8284 4.87368C10.7415 4.87135 10.6562 4.85241 10.5725 4.81687C10.4898 4.77972 10.4135 4.724 10.3437 4.64968C10.2748 4.57378 10.2234 4.47231 10.1894 4.34528L9.71519 2.57567C9.7061 2.54171 9.70379 2.50796 9.70828 2.4744C9.71277 2.44085 9.72267 2.40988 9.73799 2.38152C9.75456 2.35281 9.77625 2.32813 9.80307 2.30746C9.82988 2.2868 9.8609 2.27175 9.89611 2.26231L12.1053 1.67036L12.2367 2.16087L10.2709 2.68761L10.6799 4.21385C10.6971 4.27799 10.7272 4.32249 10.7702 4.34735C10.8133 4.37221 10.8675 4.37588 10.9329 4.35835L12.6988 3.8852L12.8302 4.37571ZM15.702 2.393C15.7461 2.55776 15.7578 2.71706 15.737 2.87092C15.7175 3.02443 15.6709 3.16497 15.5973 3.29255C15.5233 3.41887 15.4247 3.52887 15.3015 3.62253C15.1783 3.7162 15.0356 3.78477 14.8733 3.82825L13.549 4.18311C13.5138 4.19255 13.4794 4.19502 13.4458 4.19053C13.4123 4.18604 13.3813 4.17614 13.3529 4.16083C13.3255 4.14392 13.3014 4.12205 13.2808 4.09524C13.2601 4.06842 13.245 4.03741 13.2356 4.00219L12.6432 1.79113C12.6341 1.75717 12.6318 1.72341 12.6362 1.68986C12.6407 1.6563 12.6506 1.62534 12.6659 1.59697C12.6825 1.56827 12.7042 1.54358 12.731 1.52292C12.7578 1.50225 12.7889 1.4872 12.8241 1.47776L14.1485 1.1229C14.3107 1.07943 14.4686 1.06745 14.6221 1.08698C14.7756 1.10651 14.9162 1.1531 15.0437 1.22675C15.171 1.29915 15.2816 1.39757 15.3756 1.52201C15.4705 1.64486 15.5399 1.78804 15.5837 1.95154L15.702 2.393ZM15.0932 2.08297C15.0676 1.98738 15.0284 1.90419 14.9758 1.83337C14.9243 1.76223 14.8629 1.70657 14.7915 1.66639C14.7197 1.62496 14.6402 1.59977 14.5529 1.59081C14.4665 1.58026 14.3755 1.5878 14.2799 1.61341L13.1989 1.90306L13.6609 3.62739L14.7419 3.33774C14.8375 3.31212 14.9202 3.27378 14.9901 3.2227C15.0609 3.17002 15.1172 3.10844 15.159 3.03793C15.2004 2.96617 15.2258 2.88725 15.2351 2.80119C15.2453 2.71353 15.2374 2.62127 15.2115 2.52443L15.0932 2.08297Z" fill="black"/>
</svg>
