<svg width="80" height="80 " viewBox="0 0 101 101" fill="none" xmlns="http://www.w3.org/2000/svg">
<path d="M50.2632 6.901C26.1031 6.901 6.51324 26.4908 6.51324 50.651C6.51324 74.8112 26.1031 94.401 50.2632 94.401C74.4234 94.401 94.0132 74.8112 94.0132 50.651C94.0132 26.4908 74.4234 6.901 50.2632 6.901ZM50.2632 86.9791C30.2047 86.9791 13.9351 70.7096 13.9351 50.651C13.9351 30.5924 30.2047 14.3229 50.2632 14.3229C70.3218 14.3229 86.5914 30.5924 86.5914 50.651C86.5914 70.7096 70.3218 86.9791 50.2632 86.9791Z" fill="white"/>
<path d="M70.5172 49.3912L41.6012 28.3951C41.3692 28.2251 41.0947 28.1229 40.8081 28.0998C40.5214 28.0766 40.234 28.1335 39.9778 28.2642C39.7217 28.3948 39.5068 28.594 39.3572 28.8395C39.2076 29.0851 39.1291 29.3674 39.1305 29.6549V71.6471C39.1305 72.9264 40.5758 73.6491 41.6012 72.9069L70.5172 51.9108C70.7168 51.7669 70.8794 51.5777 70.9915 51.3587C71.1037 51.1396 71.1622 50.8971 71.1622 50.651C71.1622 50.4049 71.1037 50.1624 70.9915 49.9434C70.8794 49.7243 70.7168 49.5351 70.5172 49.3912ZM45.3609 62.4772V38.8248L61.6402 50.651L45.3609 62.4772Z" fill="white"/>
</svg>
