<svg style="transform: rotate(-10deg);" width="30" height="24" viewBox="0 0 32 24" fill="none" xmlns="http://www.w3.org/2000/svg">
<path d="M15.4191 19.604C16.1454 20.8619 15.7162 22.4635 14.4584 23.1897C13.2005 23.9159 11.5989 23.4868 10.8727 22.2289C10.1465 20.9711 10.5756 19.3695 11.8335 18.6433C13.0913 17.917 14.6929 18.3462 15.4191 19.604ZM25.4728 10.7686C24.215 11.4948 23.7858 13.0964 24.5121 14.3542C25.2383 15.6121 26.8399 16.0412 28.0977 15.315C29.3556 14.5888 29.7847 12.9872 29.0585 11.7293C28.3323 10.4715 26.7307 10.0423 25.4728 10.7686ZM29.853 0.541003C28.8911 0.449783 28.0087 1.16131 27.9238 2.09936L27.8843 2.48589C27.839 3.03741 27.5005 3.53598 27.0307 3.80721L5.02584 16.5117C4.55604 16.7829 3.97016 16.8181 3.45472 16.5903L3.10022 16.4313C2.24543 16.0357 1.18802 16.4441 0.786045 17.3228C0.375317 18.1864 0.807651 19.2502 1.67759 19.637L2.0321 19.796C3.55449 20.473 5.33606 20.3739 6.77577 19.5427L28.7806 6.83818C30.2203 6.00697 31.1969 4.51363 31.3719 2.85672L31.4114 2.47019C31.5114 1.52339 30.8062 0.617069 29.853 0.541003Z" fill="white"/>
</svg>
