<svg width="35" height="36" viewBox="0 0 35 36" fill="none" xmlns="http://www.w3.org/2000/svg">
<path d="M29.9105 6.04123C30.5441 6.67505 31.0384 7.43414 31.3619 8.26995C31.6854 9.10575 31.8308 9.99987 31.7889 10.8951C31.7471 11.7903 31.5188 12.667 31.1188 13.4689C30.7187 14.2709 30.1557 14.9806 29.4657 15.5525C24.0847 20.0122 19.1321 24.9648 14.6724 30.3458C14.1004 31.0358 13.3908 31.5989 12.5888 31.9989C11.7868 32.399 10.9102 32.6272 10.015 32.6691C9.11974 32.7109 8.22562 32.5655 7.38982 32.242C6.55401 31.9186 5.79492 31.4242 5.1611 30.7906C4.52911 30.1587 4.03636 29.4015 3.71455 28.5677C3.39274 27.7339 3.24898 26.842 3.29252 25.9493C3.33606 25.0567 3.56594 24.183 3.96737 23.3845C4.3688 22.586 4.9329 21.8803 5.62339 21.3129C11.0289 16.8693 15.9883 11.9094 20.4313 6.50352C20.9987 5.81303 21.7044 5.24893 22.5029 4.8475C23.3014 4.44606 24.1751 4.21619 25.0677 4.17265C25.9604 4.1291 26.8523 4.27286 27.6861 4.59468C28.5199 4.91649 29.2771 5.40924 29.909 6.04123H29.9105ZM27.8469 8.10331C27.5027 7.75903 27.0903 7.49061 26.6361 7.31531C26.1819 7.14002 25.696 7.06174 25.2098 7.0855C24.7235 7.10927 24.2476 7.23455 23.8127 7.45329C23.3778 7.67204 22.9934 7.9794 22.6844 8.35561C18.1206 13.9079 13.0264 19.0022 7.47402 23.566C7.07668 23.8928 6.75652 24.3033 6.53649 24.7683C6.31645 25.2333 6.20199 25.7412 6.20129 26.2557C6.20059 26.7701 6.31368 27.2783 6.53246 27.7439C6.75123 28.2095 7.07027 28.6209 7.46673 28.9487C8.18603 29.5447 9.11257 29.8306 10.0426 29.7437C10.9727 29.6567 11.8302 29.204 12.4265 28.485C17.0028 22.9643 22.0848 17.8833 27.6063 13.3081C27.9837 12.9951 28.2916 12.6068 28.5103 12.168C28.729 11.7293 28.8538 11.2497 28.8766 10.7599C28.8993 10.2702 28.8197 9.78105 28.6426 9.32385C28.4656 8.86666 28.1951 8.45145 27.8484 8.10477L27.8469 8.10331ZM19.5971 16.3123C19.3237 16.0386 19.1701 15.6676 19.1703 15.2807C19.1704 15.0892 19.2081 14.8995 19.2815 14.7226C19.3549 14.5456 19.4624 14.3849 19.5979 14.2495C19.7334 14.1141 19.8942 14.0067 20.0712 13.9334C20.2482 13.8602 20.4379 13.8225 20.6294 13.8226C21.0163 13.8227 21.3872 13.9765 21.6607 14.2502C21.7961 14.3857 21.9035 14.5465 21.9767 14.7235C22.0499 14.9005 22.0876 15.0902 22.0875 15.2817C22.0875 15.4733 22.0497 15.663 21.9763 15.8399C21.9029 16.0168 21.7955 16.1776 21.66 16.313C21.5245 16.4484 21.3636 16.5558 21.1866 16.629C21.0096 16.7023 20.8199 16.7399 20.6284 16.7399C20.4368 16.7398 20.2472 16.702 20.0702 16.6286C19.8933 16.5553 19.7325 16.4478 19.5971 16.3123ZM12.3784 23.531C12.2429 23.3955 12.1354 23.2347 12.0621 23.0576C11.9888 22.8806 11.951 22.6909 11.951 22.4993C11.951 22.3076 11.9888 22.1179 12.0621 21.9409C12.1354 21.7638 12.2429 21.603 12.3784 21.4675C12.5139 21.332 12.6747 21.2245 12.8518 21.1512C13.0288 21.0778 13.2185 21.0401 13.4102 21.0401C13.6018 21.0401 13.7915 21.0778 13.9686 21.1512C14.1456 21.2245 14.3064 21.332 14.4419 21.4675C14.7156 21.7409 14.8694 22.1119 14.8695 22.4987C14.8697 22.8856 14.7161 23.2567 14.4427 23.5303C14.1692 23.8039 13.7983 23.9577 13.4114 23.9579C13.0246 23.958 12.6535 23.8045 12.3799 23.531H12.3784Z" fill="white"/>
</svg>
