<svg width="41" height="26" viewBox="0 0 41 26" fill="none" xmlns="http://www.w3.org/2000/svg">
<path fill-rule="evenodd" clip-rule="evenodd" d="M0.510254 13.0649C0.510254 11.3721 0.844238 9.75433 1.51221 8.21137C2.18018 6.6684 3.07393 5.34027 4.19385 4.22699C5.31357 3.11371 6.64951 2.22504 8.20166 1.56097C9.75361 0.896911 11.381 0.56488 13.0835 0.56488H28.1714C29.8739 0.56488 31.5015 0.896911 33.0534 1.56097C34.6054 2.22504 35.9413 3.11371 37.0612 4.22699C38.181 5.34027 39.0749 6.6684 39.7429 8.21137C40.4106 9.75433 40.7446 11.3721 40.7446 13.0649C40.7446 14.7577 40.4106 16.3754 39.7427 17.9184C39.0747 19.4614 38.181 20.7895 37.061 21.9028C35.9413 23.0161 34.6054 23.9047 33.0532 24.5688C31.5013 25.2328 29.8739 25.5649 28.1714 25.5649H13.0835C11.381 25.5649 9.75342 25.2328 8.20146 24.5688C6.64951 23.9047 5.31357 23.0161 4.19365 21.9028C3.07393 20.7895 2.17998 19.4614 1.51201 17.9184C0.844238 16.3754 0.510254 14.7577 0.510254 13.0649ZM4.02588 13.0524C4.02588 14.3235 4.2915 15.5368 4.82275 16.6918C5.354 17.8469 6.07217 18.8461 6.97744 19.6897C7.88252 20.533 8.95498 21.2022 10.1946 21.6973C11.4341 22.1924 12.736 22.4399 14.1001 22.4399H20.2466C19.1841 21.6973 17.0294 19.2862 16.3507 17.8928C15.6718 16.4993 15.2487 14.385 15.2487 13.1139C15.2487 12.9612 15.2444 12.8059 15.2401 12.6457C15.2077 11.4741 15.1685 10.0426 16.7442 7.40512C17.8456 5.56137 19.4677 4.21039 20.2421 3.66488H20.3647C20.8798 3.29769 20.7271 3.32347 20.2421 3.66488H14.1001C12.7358 3.66488 11.4341 3.91234 10.1944 4.40726C8.95478 4.90238 7.88232 5.57172 6.97725 6.41508C6.07197 7.25844 5.35381 8.25765 4.82256 9.41273C4.29457 10.5533 4.02264 11.7956 4.02588 13.0524ZM19.4159 16.6996C18.9216 15.5459 18.6743 14.3344 18.6743 13.0649C18.6743 11.7953 18.9216 10.5838 19.4159 9.43031C19.9103 8.2766 20.5786 7.27875 21.421 6.43656C22.2632 5.59418 23.261 4.92582 24.4146 4.43148C25.5683 3.93715 26.7798 3.68988 28.0493 3.68988C29.3188 3.68988 30.5304 3.93715 31.6839 4.43148C32.8376 4.92582 33.8354 5.59418 34.6776 6.43636C35.52 7.27875 36.1884 8.2766 36.6827 9.43011C37.1771 10.5838 37.4243 11.7953 37.4243 13.0649C37.4243 14.3344 37.1771 15.5459 36.6827 16.6994C36.1884 17.8532 35.52 18.851 34.6776 19.6932C33.8354 20.5356 32.8376 21.2039 31.6841 21.6983C30.5304 22.1926 29.3188 22.4399 28.0493 22.4399C26.7798 22.4399 25.5683 22.1926 24.4147 21.6983C23.261 21.2039 22.2632 20.5356 21.421 19.6932C20.5786 18.851 19.9103 17.8532 19.4159 16.6996Z" fill="white"/>
<path d="M19.4159 16.6996C18.9216 15.5459 18.6743 14.3344 18.6743 13.0649C18.6743 11.7953 18.9216 10.5838 19.4159 9.43031C19.9103 8.2766 20.5786 7.27875 21.421 6.43656C22.2632 5.59418 23.261 4.92582 24.4146 4.43148C25.5683 3.93715 26.7798 3.68988 28.0493 3.68988C29.3188 3.68988 30.5304 3.93715 31.6839 4.43148C32.8376 4.92582 33.8354 5.59418 34.6776 6.43636C35.52 7.27875 36.1884 8.2766 36.6827 9.43011C37.1771 10.5838 37.4243 11.7953 37.4243 13.0649C37.4243 14.3344 37.1771 15.5459 36.6827 16.6994C36.1884 17.8532 35.52 18.851 34.6776 19.6932C33.8354 20.5356 32.8376 21.2039 31.6841 21.6983C30.5304 22.1926 29.3188 22.4399 28.0493 22.4399C26.7798 22.4399 25.5683 22.1926 24.4147 21.6983C23.261 21.2039 22.2632 20.5356 21.421 19.6932C20.5786 18.851 19.9103 17.8532 19.4159 16.6996Z" fill="#D0D0D0"/>
</svg>
