<svg width="42" height="26" viewBox="0 0 42 26" fill="none" xmlns="http://www.w3.org/2000/svg">
<path fill-rule="evenodd" clip-rule="evenodd" d="M41.1172 12.9501C41.1172 11.2573 40.7832 9.63953 40.1152 8.09656C39.4473 6.55359 38.5535 5.22546 37.4336 4.11218C36.3139 2.9989 34.9779 2.11023 33.4258 1.44617C31.8738 0.782104 30.2465 0.450073 28.5439 0.450073H13.4561C11.7535 0.450073 10.126 0.782104 8.57402 1.44617C7.02207 2.11023 5.68613 2.9989 4.56621 4.11218C3.44648 5.22546 2.55254 6.55359 1.88457 8.09656C1.2168 9.63953 0.882812 11.2573 0.882812 12.9501C0.882812 14.6428 1.2168 16.2606 1.88477 17.8036C2.55273 19.3466 3.44648 20.6747 4.56641 21.788C5.68613 22.9012 7.02207 23.7899 8.57422 24.454C10.1262 25.118 11.7535 25.4501 13.4561 25.4501H28.5439C30.2465 25.4501 31.874 25.118 33.426 24.454C34.9779 23.7899 36.3139 22.9012 37.4338 21.788C38.5535 20.6747 39.4475 19.3466 40.1154 17.8036C40.7832 16.2606 41.1172 14.6428 41.1172 12.9501ZM37.6016 12.9376C37.6016 14.2087 37.3359 15.422 36.8047 16.577C36.2734 17.7321 35.5553 18.7313 34.65 19.5749C33.7449 20.4182 32.6725 21.0874 31.4328 21.5825C30.1934 22.0776 28.8914 22.3251 27.5273 22.3251H21.3809C22.4434 21.5825 24.598 19.1714 25.2768 17.778C25.9557 16.3844 26.3787 14.2702 26.3787 12.9991C26.3787 12.8464 26.383 12.6911 26.3873 12.5309C26.4197 11.3593 26.459 9.92781 24.8832 7.29031C23.7818 5.44656 22.1598 4.09558 21.3854 3.55007H21.2627C20.7477 3.18289 20.9004 3.20867 21.3854 3.55007H27.5273C28.8916 3.55007 30.1934 3.79753 31.433 4.29246C32.6727 4.78757 33.7451 5.45691 34.6502 6.30027C35.5555 7.14363 36.2736 8.14285 36.8049 9.29792C37.3329 10.4385 37.6048 11.6808 37.6016 12.9376ZM22.2115 16.5848C22.7059 15.4311 22.9531 14.2196 22.9531 12.9501C22.9531 11.6805 22.7059 10.469 22.2115 9.3155C21.7172 8.16179 21.0488 7.16394 20.2064 6.32175C19.3643 5.47937 18.3664 4.81101 17.2129 4.31667C16.0592 3.82234 14.8477 3.57507 13.5781 3.57507C12.3086 3.57507 11.0971 3.82234 9.94356 4.31667C8.78984 4.81101 7.79199 5.47937 6.94981 6.32156C6.10742 7.16394 5.43906 8.16179 4.94473 9.31531C4.45039 10.469 4.20312 11.6805 4.20312 12.9501C4.20312 14.2196 4.45039 15.4311 4.94473 16.5846C5.43906 17.7384 6.10742 18.7362 6.94981 19.5784C7.79199 20.4208 8.78984 21.0891 9.94336 21.5835C11.0971 22.0778 12.3086 22.3251 13.5781 22.3251C14.8477 22.3251 16.0592 22.0778 17.2127 21.5835C18.3664 21.0891 19.3643 20.4208 20.2064 19.5784C21.0488 18.7362 21.7172 17.7384 22.2115 16.5848Z" fill="white"/>
<path d="M22.2115 16.5848C22.7059 15.4311 22.9531 14.2196 22.9531 12.9501C22.9531 11.6805 22.7059 10.469 22.2115 9.3155C21.7172 8.16179 21.0488 7.16394 20.2064 6.32175C19.3643 5.47937 18.3664 4.81101 17.2129 4.31667C16.0592 3.82234 14.8477 3.57507 13.5781 3.57507C12.3086 3.57507 11.0971 3.82234 9.94356 4.31667C8.78984 4.81101 7.79199 5.47937 6.94981 6.32156C6.10742 7.16394 5.43906 8.16179 4.94473 9.31531C4.45039 10.469 4.20312 11.6805 4.20312 12.9501C4.20312 14.2196 4.45039 15.4311 4.94473 16.5846C5.43906 17.7384 6.10742 18.7362 6.94981 19.5784C7.79199 20.4208 8.78984 21.0891 9.94336 21.5835C11.0971 22.0778 12.3086 22.3251 13.5781 22.3251C14.8477 22.3251 16.0592 22.0778 17.2127 21.5835C18.3664 21.0891 19.3643 20.4208 20.2064 19.5784C21.0488 18.7362 21.7172 17.7384 22.2115 16.5848Z" fill="#D0D0D0"/>
</svg>
