<svg width="151" height="151" viewBox="0 0 151 151" fill="none" xmlns="http://www.w3.org/2000/svg">
<path d="M80.6748 14.976L76.3998 22.7572L45.828 78.3322L36.8467 69.351L33.753 74.4978L6.28422 120.281L2.03265 127.378H148.676L145.873 120.838L131.811 88.0259L129.083 81.665L119.389 91.3588L84.6873 22.8978L80.6795 14.976H80.6748ZM80.3327 35.0478L94.5827 63.1541L90.9545 66.2666L80.267 57.1119L69.5842 66.2666L65.2248 62.5213L80.3327 35.0478ZM80.2717 69.4541L90.9592 78.6088L98.9374 71.765L113.937 101.367L116.853 107.146L125.909 98.09L134.44 118.003H18.5842C25.2873 106.823 31.9998 95.6431 38.7077 84.4681L48.0264 93.7869L51.0358 88.3213C54.228 82.5181 57.4249 76.7197 60.6124 70.9166L69.5842 78.6041L80.2717 69.4541Z" fill="#9ECFE7"/>
</svg>
