<svg style="transform: scale(0.6);" width="150" height="121" viewBox="0 0 150 121" fill="none" xmlns="http://www.w3.org/2000/svg">
<path d="M37.5 53.3151H112.5V40.4948C105.867 37.401 101.25 31.0026 101.25 23.3151C101.25 12.9604 109.641 4.56506 120 4.56506C130.359 4.56506 138.75 12.9604 138.75 23.3151C138.75 31.0026 134.133 37.401 127.5 40.4948V53.3151H142.5C146.648 53.3151 150 56.6666 150 60.8151C150 64.9635 146.648 68.3151 142.5 68.3151H82.5V81.1354C89.1328 84.0182 93.75 90.6276 93.75 98.3151C93.75 108.674 85.3594 117.065 75 117.065C64.6406 117.065 56.25 108.674 56.25 98.3151C56.25 90.6276 60.8672 84.0182 67.5 81.1354V68.3151H7.5C3.35859 68.3151 0 64.9635 0 60.8151C0 56.6666 3.35859 53.3151 7.5 53.3151H22.5V40.4948C15.8789 37.401 11.25 31.0026 11.25 23.3151C11.25 12.9604 19.6453 4.56506 30 4.56506C40.3594 4.56506 48.75 12.9604 48.75 23.3151C48.75 31.0026 44.1328 37.401 37.5 40.4948V53.3151ZM30 28.9401C33.1172 28.9401 35.625 26.4323 35.625 23.3151C35.625 20.2096 33.1172 17.6901 30 17.6901C26.8828 17.6901 24.375 20.2096 24.375 23.3151C24.375 26.4323 26.8828 28.9401 30 28.9401ZM120 17.6901C116.883 17.6901 114.375 20.2096 114.375 23.3151C114.375 26.4323 116.883 28.9401 120 28.9401C123.117 28.9401 125.625 26.4323 125.625 23.3151C125.625 20.2096 123.117 17.6901 120 17.6901ZM75 103.94C78.1172 103.94 80.625 101.432 80.625 98.3151C80.625 95.1979 78.1172 92.6901 75 92.6901C71.8828 92.6901 69.375 95.1979 69.375 98.3151C69.375 101.432 71.8828 103.94 75 103.94Z" fill="#9ECFE7"/>
</svg>
