<svg style="transform: scale(0.85)" width="150" height="151" viewBox="0 0 150 151" fill="none" xmlns="http://www.w3.org/2000/svg">
<path d="M128.187 22.8588C130.903 25.5752 133.022 28.8284 134.408 32.4105C135.794 35.9925 136.417 39.8244 136.238 43.6611C136.059 47.4978 135.08 51.2549 133.366 54.6919C131.651 58.1289 129.238 61.1702 126.281 63.6213C103.22 82.7344 81.9943 103.96 62.8812 127.021C60.4301 129.978 57.3888 132.391 53.9518 134.106C50.5148 135.82 46.7577 136.799 42.921 136.978C39.0843 137.158 35.2524 136.534 31.6703 135.148C28.0883 133.762 24.8351 131.643 22.1187 128.928C19.4102 126.219 17.2984 122.974 15.9192 119.401C14.54 115.827 13.9239 112.005 14.1105 108.179C14.2971 104.354 15.2823 100.609 17.0027 97.187C18.7231 93.7649 21.1407 90.7406 24.0999 88.3088C47.2662 69.265 68.5209 48.0082 87.5625 24.8401C89.9943 21.8808 93.0185 19.4632 96.4407 17.7428C99.8628 16.0224 103.607 15.0372 107.433 14.8506C111.259 14.664 115.081 15.2801 118.654 16.6593C122.228 18.0385 125.473 20.1503 128.181 22.8588H128.187ZM119.344 31.6963C117.868 30.2208 116.101 29.0704 114.154 28.3192C112.208 27.5679 110.126 27.2324 108.042 27.3343C105.958 27.4361 103.918 27.973 102.054 28.9105C100.19 29.848 98.543 31.1653 97.2187 32.7776C77.6593 56.5733 55.8269 78.4057 32.0312 97.9651C30.3283 99.3654 28.9562 101.125 28.0132 103.118C27.0702 105.111 26.5796 107.287 26.5766 109.492C26.5737 111.697 27.0583 113.875 27.9959 115.87C28.9335 117.866 30.3009 119.629 31.9999 121.034C35.0827 123.588 39.0535 124.813 43.0395 124.441C47.0255 124.068 50.7004 122.128 53.2562 119.046C72.8687 95.3864 94.6488 73.6105 118.312 54.0026C119.93 52.6612 121.249 50.997 122.187 49.1165C123.124 47.236 123.659 45.1806 123.756 43.0817C123.854 40.9828 123.513 38.8866 122.754 36.9272C121.995 34.9678 120.836 33.1883 119.35 31.7026L119.344 31.6963ZM83.9874 66.8776C82.8155 65.7048 82.1575 64.1145 82.1581 62.4566C82.1583 61.6357 82.3203 60.8228 82.6348 60.0645C82.9492 59.3062 83.4099 58.6172 83.9906 58.0369C84.5713 57.4567 85.2606 56.9964 86.0191 56.6825C86.7777 56.3687 87.5906 56.2073 88.4115 56.2075C90.0695 56.2081 91.6593 56.8673 92.8312 58.0401C93.4115 58.6208 93.8717 59.31 94.1856 60.0686C94.4995 60.8271 94.6609 61.6401 94.6606 62.461C94.6603 63.282 94.4983 64.0948 94.1839 64.8531C93.8695 65.6114 93.4088 66.3004 92.8281 66.8807C92.2474 67.461 91.5581 67.9212 90.7995 68.2351C90.041 68.549 89.228 68.7104 88.4071 68.7101C87.5862 68.7098 86.7734 68.5478 86.015 68.2334C85.2567 67.919 84.5677 67.4583 83.9874 66.8776ZM53.0499 97.8151C52.4693 97.2344 52.0086 96.545 51.6944 95.7863C51.3801 95.0276 51.2183 94.2144 51.2183 93.3932C51.2183 92.572 51.3801 91.7588 51.6944 91.0001C52.0086 90.2414 52.4693 89.552 53.0499 88.9713C53.6306 88.3906 54.32 87.93 55.0787 87.6157C55.8374 87.3015 56.6506 87.1397 57.4718 87.1397C58.293 87.1397 59.1062 87.3015 59.8649 87.6157C60.6236 87.93 61.313 88.3906 61.8937 88.9713C63.0665 90.1432 63.7256 91.733 63.7262 93.391C63.7268 95.0489 63.0687 96.6392 61.8968 97.8119C60.7249 98.9847 59.1351 99.6439 57.4772 99.6445C55.8192 99.645 54.229 98.987 53.0562 97.8151H53.0499Z" fill="#9ECFE7"/>
</svg>
