<svg style="transform: scale(0.72) translateX(-1%)" width="126" height="126" viewBox="0 0 126 126" fill="none" xmlns="http://www.w3.org/2000/svg">
<g clip-path="url(#clip0_19_110)">
<path d="M106.053 23.7526C112.523 23.7526 117.772 18.5035 117.772 12.0338C117.772 5.56409 112.523 0.315063 106.053 0.315063C99.5836 0.315063 94.3346 5.56409 94.3346 12.0338C94.3346 18.5035 99.5836 23.7526 106.053 23.7526ZM113.085 61.2526C114.501 62.3024 116.136 62.8151 117.772 62.8151C120.14 62.8151 122.484 61.7408 124.022 59.6901C126.61 56.2477 125.926 51.3405 122.46 48.7526L95.2624 28.3668C91.8932 25.8522 88.1579 23.8746 84.1784 22.5563L68.6266 17.3805L62.2545 4.66077C60.3258 0.803344 55.6383 -0.759155 51.7809 1.16956C47.9235 3.09827 46.361 7.78577 48.2897 11.6432L55.3942 25.8278C56.7858 28.611 59.2028 30.6862 62.1569 31.6871L66.1608 33.0299L56.1022 38.0592C50.7799 40.7203 47.4596 46.067 47.4596 52.024V64.9879L29.3688 71.0182C25.2672 72.3854 23.07 76.8043 24.4371 80.9059C24.8522 82.1754 25.6334 83.2008 26.5612 84.0553L17.1129 80.6129C14.7448 79.7584 12.8649 78.025 11.7907 75.7301C10.4235 72.8004 6.93226 71.5309 4.00258 72.8981C1.07289 74.2653 -0.196644 77.7565 1.17054 80.6862C3.56312 85.8131 7.78676 89.6949 13.109 91.6237L102.172 124.021C104.54 124.876 106.981 125.315 109.423 125.315C112.474 125.315 115.502 124.656 118.334 123.313C121.263 121.946 122.533 118.455 121.166 115.525C119.798 112.595 116.307 111.326 113.378 112.693C111.107 113.767 108.544 113.865 106.175 113.01L84.0075 104.929C86.1315 103.928 87.8161 102.048 88.3532 99.5826L93.6999 74.6803C94.652 70.2369 92.9186 65.5983 89.2809 62.8639L76.5856 53.3424L92.6989 45.8961L113.085 61.2526ZM77.8307 73.8746L73.0211 96.3356C72.6549 98.069 72.9967 99.7291 73.7047 101.218L32.3473 86.1793C33.0065 86.1305 33.6657 86.0817 34.3004 85.8619L55.0524 78.9283C59.8375 77.3414 63.0602 72.8737 63.0602 67.8199V62.8151L77.8307 73.8746Z" fill="#9ECFE7"/>
</g>
<defs>
<clipPath id="clip0_19_110">
<rect width="125" height="125" fill="white" transform="translate(0.584595 0.315063)"/>
</clipPath>
</defs>
</svg>
