<svg width="33" height="33" viewBox="0 0 33 33" fill="none" xmlns="http://www.w3.org/2000/svg">
<path d="M12.6365 14.1311C11.6029 14.1311 10.7887 14.9342 10.7887 15.9148C10.7887 16.8921 11.622 17.6985 12.6365 17.6985C13.6681 17.6985 14.4824 16.8921 14.4824 15.9148C14.5034 14.9325 13.6681 14.1311 12.6365 14.1311ZM19.2497 14.1311C18.2161 14.1311 17.4019 14.9342 17.4019 15.9148C17.4019 16.8921 18.2352 17.6985 19.2497 17.6985C20.2813 17.6985 21.0955 16.8921 21.0955 15.9148C21.0936 14.9325 20.2813 14.1311 19.2497 14.1311Z" fill="white"/>
<path d="M28.3167 0.654541H3.81195C3.31854 0.655645 2.83022 0.741775 2.37485 0.908013C1.91949 1.07425 1.506 1.31734 1.158 1.6234C0.810004 1.92946 0.53431 2.29251 0.346659 2.6918C0.159009 3.09109 0.0630779 3.51881 0.0643434 3.95054V25.5825C0.0643434 27.4065 1.74663 28.8785 3.81195 28.8785H24.5479L23.5759 25.916L25.9184 27.8209L28.13 29.6129L32.0643 32.6545V3.95054C32.0656 3.51881 31.9697 3.09109 31.782 2.6918C31.5944 2.29251 31.3187 1.92946 30.9707 1.6234C30.6227 1.31734 30.2092 1.07425 29.7538 0.908013C29.2984 0.741775 28.8101 0.655645 28.3167 0.654541V0.654541ZM21.2565 21.5505C21.2565 21.5505 20.5982 20.8634 20.0516 20.252C22.446 19.6592 23.3603 18.3489 23.3603 18.3489C22.6096 18.78 21.8975 19.0865 21.2565 19.2954C18.923 20.1499 16.3533 20.3831 13.8691 19.9657C12.9512 19.8079 12.0517 19.5768 11.182 19.2752C10.7234 19.1227 10.2777 18.9421 9.84816 18.7345C9.79234 18.6992 9.73844 18.6857 9.68455 18.6537C9.65571 18.6417 9.63013 18.6245 9.60948 18.6032C9.28034 18.4449 9.09748 18.3337 9.09748 18.3337C9.09748 18.3337 9.97519 19.6137 12.2984 20.2217C11.7499 20.828 11.0723 21.5505 11.0723 21.5505C7.03216 21.4377 5.49808 19.1185 5.49808 19.1185C5.49808 13.9665 8.13122 9.79138 8.13122 9.79138C10.7644 8.0617 13.2685 8.11054 13.2685 8.11054L13.4514 8.30254C10.16 9.13623 8.6413 10.3994 8.6413 10.3994C8.6413 10.3994 9.04551 10.2074 9.72112 9.93622C11.6767 9.18507 13.23 8.97623 13.871 8.92738C13.9807 8.91223 14.0731 8.89538 14.1828 8.89538C17.3534 8.52152 20.5774 9.04875 23.3796 10.3994C23.3796 10.3994 21.934 9.20023 18.8255 8.36823L19.0815 8.11223C19.0815 8.11223 21.5876 8.06338 24.2188 9.79307C24.2188 9.79307 26.8519 13.9682 26.8519 19.1202C26.8519 19.1185 25.2986 21.4377 21.2565 21.5505V21.5505Z" fill="white"/>
</svg>
