<svg width="33" height="33" viewBox="0 0 33 33" fill="none" xmlns="http://www.w3.org/2000/svg">
<path d="M30.7763 23.4194V9.01938C30.7763 7.69138 29.7043 6.61938 28.3763 6.61938H5.9603C4.6323 6.61938 3.5603 7.69138 3.5603 9.01938V23.4194C3.5603 24.7474 4.6323 25.8194 5.9603 25.8194H28.3763C29.7043 25.8194 30.7763 24.7474 30.7763 23.4194ZM28.6803 8.84338C29.2083 9.37138 28.9203 9.91538 28.6323 10.1874L22.1363 16.1394L28.3763 22.6354C28.5683 22.8594 28.6963 23.2114 28.4723 23.4514C28.2643 23.7074 27.7843 23.6914 27.5763 23.5314L20.5843 17.5634L17.1603 20.6834L13.7523 17.5634L6.7603 23.5314C6.5523 23.6914 6.0723 23.7074 5.8643 23.4514C5.6403 23.2114 5.7683 22.8594 5.9603 22.6354L12.2003 16.1394L5.7043 10.1874C5.4163 9.91538 5.1283 9.37138 5.6563 8.84338C6.1843 8.31538 6.7283 8.57138 7.1763 8.95538L17.1603 17.0194L27.1603 8.95538C27.6083 8.57138 28.1523 8.31538 28.6803 8.84338V8.84338Z" fill="white"/>
</svg>
