<svg width="33" height="33" viewBox="0 0 33 33" fill="none" xmlns="http://www.w3.org/2000/svg">
<path d="M30.2866 0.955322H1.84211C1.37061 0.955322 0.918428 1.14262 0.58503 1.47602C0.251632 1.80942 0.0643311 2.2616 0.0643311 2.7331V31.1775C0.0643311 31.649 0.251632 32.1012 0.58503 32.4346C0.918428 32.768 1.37061 32.9553 1.84211 32.9553H17.1577V20.582H13.0012V15.7375H17.1577V12.182C17.1577 8.04865 19.6821 5.79621 23.3799 5.79621C24.6226 5.79266 25.867 5.85666 27.1043 5.98643V10.2887H24.5532C22.5479 10.2887 22.1568 11.2451 22.1568 12.6442V15.7287H26.9514L26.3292 20.5731H22.155V32.9553H30.2866C30.758 32.9553 31.2102 32.768 31.5436 32.4346C31.877 32.1012 32.0643 31.649 32.0643 31.1775V2.7331C32.0643 2.2616 31.877 1.80942 31.5436 1.47602C31.2102 1.14262 30.758 0.955322 30.2866 0.955322V0.955322Z" fill="white"/>
</svg>
