<svg width="33" height="33" viewBox="0 0 33 33" fill="none" xmlns="http://www.w3.org/2000/svg">
<path fill-rule="evenodd" clip-rule="evenodd" d="M16.0643 0.219482C7.22695 0.219482 0.0643311 7.56341 0.0643311 16.6245C0.0643311 23.8714 4.64745 30.0212 11.0064 32.1923C11.8069 32.3403 12.0956 31.8354 12.0956 31.4012C12.0956 31.0114 12.0828 29.9784 12.078 28.6116C7.62639 29.6018 6.68635 26.4109 6.68635 26.4109C5.96126 24.5161 4.91053 24.0112 4.91053 24.0112C3.45876 22.9931 5.02122 23.0161 5.02122 23.0161C6.6286 23.1312 7.47079 24.7069 7.47079 24.7069C8.8985 27.2136 11.2181 26.4899 12.1261 26.0704C12.2721 25.0096 12.6892 24.2859 13.1447 23.8763C9.59311 23.4635 5.8586 22.0555 5.8586 15.7676C5.8586 13.9797 6.48262 12.5125 7.50127 11.3678C7.33925 10.9517 6.78581 9.2822 7.66008 7.02557C7.66008 7.02557 9.00277 6.58312 12.0587 8.70489C13.3639 8.34085 14.7102 8.15503 16.0627 8.15224C17.4153 8.15449 18.7617 8.34032 20.0667 8.70489C23.1243 6.58148 24.4654 7.02557 24.4654 7.02557C25.3396 9.2822 24.791 10.9517 24.6242 11.3678C25.6509 12.5125 26.2669 13.978 26.2669 15.7676C26.2669 22.072 22.5291 23.4569 18.9647 23.8632C19.5342 24.3697 20.0475 25.3698 20.0475 26.8994C20.0475 29.0935 20.0282 30.8633 20.0282 31.4012C20.0282 31.8403 20.3138 32.3502 21.1303 32.189C27.486 30.0146 32.0643 23.8697 32.0643 16.6245C32.0643 7.56341 24.9017 0.219482 16.0643 0.219482Z" fill="white"/>
</svg>
