<svg width="33" height="33" viewBox="0 0 33 33" fill="none" xmlns="http://www.w3.org/2000/svg">
<path d="M32.6488 9.57605C32.6308 8.23244 32.3789 6.90219 31.9042 5.6448C31.4926 4.5842 30.8638 3.62098 30.0582 2.81669C29.2526 2.0124 28.2878 1.38473 27.2254 0.973769C25.9821 0.507832 24.6686 0.255891 23.3409 0.228675C21.6314 0.152392 21.0895 0.131104 16.7501 0.131104C12.4107 0.131104 11.8545 0.131104 10.1574 0.228675C8.8303 0.256091 7.51744 0.508029 6.27471 0.973769C5.21217 1.38444 4.2472 2.01201 3.44154 2.81634C2.63587 3.62066 2.00725 4.58403 1.5959 5.6448C1.12825 6.88508 0.876439 8.19605 0.851342 9.52106C0.774932 11.2295 0.751831 11.7705 0.751831 16.1027C0.751831 20.4349 0.751831 20.9884 0.851342 22.6844C0.877997 24.0114 1.12855 25.3206 1.5959 26.5642C2.00794 27.6246 2.63703 28.5876 3.44297 29.3916C4.2489 30.1956 5.21396 30.8229 6.27649 31.2334C7.51582 31.7181 8.8289 31.9881 10.1592 32.0318C11.8704 32.108 12.4124 32.1311 16.7518 32.1311C21.0912 32.1311 21.6474 32.1311 23.3445 32.0318C24.6721 32.0057 25.9857 31.7543 27.229 31.2884C28.291 30.877 29.2556 30.2492 30.0612 29.4449C30.8668 28.6407 31.4956 27.6777 31.9078 26.6174C32.3751 25.3756 32.6257 24.0664 32.6523 22.7376C32.7287 21.031 32.7518 20.4899 32.7518 16.1559C32.7483 11.8238 32.7483 11.2738 32.6488 9.57605V9.57605ZM16.7394 24.2952C12.201 24.2952 8.52438 20.6247 8.52438 16.0939C8.52438 11.563 12.201 7.8925 16.7394 7.8925C18.9182 7.8925 21.0077 8.75657 22.5483 10.2946C24.0889 11.8327 24.9544 13.9187 24.9544 16.0939C24.9544 18.269 24.0889 20.355 22.5483 21.8931C21.0077 23.4311 18.9182 24.2952 16.7394 24.2952V24.2952ZM25.2814 9.50154C25.0298 9.50178 24.7805 9.45247 24.548 9.35645C24.3155 9.26042 24.1043 9.11956 23.9263 8.94193C23.7484 8.7643 23.6073 8.55339 23.5111 8.32126C23.4149 8.08913 23.3655 7.84034 23.3658 7.58914C23.3658 7.33811 23.4153 7.08955 23.5115 6.85763C23.6078 6.62571 23.7488 6.41499 23.9266 6.23749C24.1044 6.05999 24.3155 5.91919 24.5478 5.82312C24.7801 5.72706 25.029 5.67762 25.2805 5.67762C25.5319 5.67762 25.7809 5.72706 26.0132 5.82312C26.2455 5.91919 26.4566 6.05999 26.6344 6.23749C26.8122 6.41499 26.9532 6.62571 27.0494 6.85763C27.1457 7.08955 27.1952 7.33811 27.1952 7.58914C27.1952 8.64646 26.3387 9.50154 25.2814 9.50154Z" fill="white"/>
<path d="M16.7518 21.461C19.6954 21.461 22.0818 19.0747 22.0818 16.131C22.0818 13.1873 19.6954 10.801 16.7518 10.801C13.8081 10.801 11.4218 13.1873 11.4218 16.131C11.4218 19.0747 13.8081 21.461 16.7518 21.461Z" fill="white"/>
</svg>
