<svg width="33" height="33" viewBox="0 0 33 33" fill="none" xmlns="http://www.w3.org/2000/svg">
<path d="M30.9741 0.219482H2.52961C2.05811 0.219482 1.60593 0.406783 1.27253 0.740181C0.939132 1.07358 0.751831 1.52576 0.751831 1.99726V30.4417C0.751831 30.9132 0.939132 31.3654 1.27253 31.6988C1.60593 32.0322 2.05811 32.2195 2.52961 32.2195H30.9741C31.4455 32.2195 31.8977 32.0322 32.2311 31.6988C32.5645 31.3654 32.7518 30.9132 32.7518 30.4417V1.99726C32.7518 1.52576 32.5645 1.07358 32.2311 0.740181C31.8977 0.406783 31.4455 0.219482 30.9741 0.219482V0.219482ZM10.2434 27.4853H5.49316V12.2141H10.2434V27.4853ZM7.86828 10.1288C7.1384 10.1288 6.43842 9.83887 5.92232 9.32277C5.40622 8.80667 5.11628 8.10669 5.11628 7.37682C5.11628 6.64694 5.40622 5.94696 5.92232 5.43086C6.43842 4.91476 7.1384 4.62482 7.86828 4.62482C8.59815 4.62482 9.29813 4.91476 9.81423 5.43086C10.3303 5.94696 10.6203 6.64694 10.6203 7.37682C10.6203 8.10669 10.3303 8.80667 9.81423 9.32277C9.29813 9.83887 8.59815 10.1288 7.86828 10.1288V10.1288ZM28.0194 27.4853H23.2745V20.0595C23.2745 18.2888 23.2425 16.0115 20.8069 16.0115C18.3358 16.0115 17.9607 17.9421 17.9607 19.935V27.487H13.2194V12.2159H17.7705V14.303H17.8363C18.4674 13.103 20.0176 11.8373 22.3234 11.8373C27.1305 11.8373 28.0176 14.9981 28.0176 19.1119V27.4853H28.0194Z" fill="white"/>
</svg>
