<svg width="32" height="33" viewBox="0 0 32 33" fill="none" xmlns="http://www.w3.org/2000/svg">
<g clip-path="url(#clip0_59_47)">
<path d="M26.6667 21.8374C26.6667 21.5318 26.5139 21.3443 26.2083 21.2749C25.2778 21.0805 24.4583 20.6777 23.75 20.0666C23.0417 19.4555 22.4861 18.6985 22.0833 17.7957C21.9861 17.6013 21.9375 17.4277 21.9375 17.2749C21.9375 17.0666 22.0729 16.886 22.3438 16.7332C22.6146 16.5805 22.9097 16.4624 23.2292 16.3791C23.5486 16.2957 23.8438 16.1534 24.1146 15.952C24.3854 15.7506 24.5208 15.4971 24.5208 15.1916C24.5208 14.9277 24.3924 14.7089 24.1354 14.5353C23.8785 14.3617 23.6111 14.2749 23.3333 14.2749C23.1806 14.2749 22.9653 14.3305 22.6875 14.4416C22.4097 14.5527 22.1875 14.6082 22.0208 14.6082C21.9653 14.6082 21.8819 14.5943 21.7708 14.5666C21.8403 13.6916 21.875 12.893 21.875 12.1707C21.875 11.0874 21.7569 10.2957 21.5208 9.79574C21.0208 8.7124 20.309 7.86865 19.3854 7.26449C18.4618 6.66032 17.4028 6.35824 16.2083 6.35824C13.4583 6.35824 11.5486 7.50407 10.4792 9.79574C10.2292 10.3235 10.1042 11.1221 10.1042 12.1916C10.1042 12.7193 10.1458 13.511 10.2292 14.5666C10.0903 14.5943 9.98611 14.6082 9.91667 14.6082C9.76389 14.6082 9.54514 14.5527 9.26042 14.4416C8.97569 14.3305 8.76389 14.2749 8.625 14.2749C8.34722 14.2749 8.08681 14.3617 7.84375 14.5353C7.60069 14.7089 7.47917 14.9346 7.47917 15.2124C7.47917 15.5041 7.61458 15.7506 7.88542 15.952C8.15625 16.1534 8.45139 16.2957 8.77083 16.3791C9.09028 16.4624 9.38542 16.5805 9.65625 16.7332C9.92708 16.886 10.0625 17.0666 10.0625 17.2749C10.0625 17.4277 10.0139 17.6013 9.91667 17.7957C9.02778 19.7124 7.65278 20.8721 5.79167 21.2749C5.48611 21.3443 5.33333 21.5318 5.33333 21.8374C5.33333 22.4902 6.29167 22.9693 8.20833 23.2749C8.23611 23.3443 8.27778 23.5249 8.33333 23.8166C8.38889 24.1082 8.46528 24.32 8.5625 24.452C8.65972 24.5839 8.81944 24.6499 9.04167 24.6499C9.22222 24.6499 9.48958 24.6152 9.84375 24.5457C10.1979 24.4763 10.4653 24.4416 10.6458 24.4416C11.1319 24.4416 11.6007 24.5457 12.0521 24.7541C12.5035 24.9624 12.8819 25.1881 13.1875 25.4312C13.4931 25.6742 13.8924 25.8999 14.3854 26.1082C14.8785 26.3166 15.4097 26.4207 15.9792 26.4207C16.5764 26.4207 17.125 26.3166 17.625 26.1082C18.125 25.8999 18.5243 25.6742 18.8229 25.4312C19.1215 25.1881 19.4965 24.9624 19.9479 24.7541C20.3993 24.5457 20.8681 24.4416 21.3542 24.4416C21.5347 24.4416 21.8056 24.4728 22.1667 24.5353C22.5278 24.5978 22.7986 24.6291 22.9792 24.6291C23.1875 24.6291 23.3438 24.5631 23.4479 24.4312C23.5521 24.2992 23.6319 24.0839 23.6875 23.7853C23.7431 23.4867 23.7778 23.3166 23.7917 23.2749C25.7083 22.9693 26.6667 22.4902 26.6667 21.8374ZM32 6.5874V26.5874C32 28.2402 31.4132 29.6534 30.2396 30.827C29.066 32.0006 27.6528 32.5874 26 32.5874H6C4.34722 32.5874 2.93403 32.0006 1.76042 30.827C0.586806 29.6534 0 28.2402 0 26.5874V6.5874C0 4.93462 0.586806 3.52143 1.76042 2.34782C2.93403 1.17421 4.34722 0.587402 6 0.587402H26C27.6528 0.587402 29.066 1.17421 30.2396 2.34782C31.4132 3.52143 32 4.93462 32 6.5874Z" fill="white"/>
</g>
<defs>
<clipPath id="clip0_59_47">
<rect width="32" height="32" fill="white" transform="translate(0 0.587402)"/>
</clipPath>
</defs>
</svg>
