<svg width="33" height="33" viewBox="0 0 33 33" fill="none" xmlns="http://www.w3.org/2000/svg">
<path d="M30.1551 7.54938C28.3251 7.19855 26.6696 6.35133 25.4262 5.12931C24.1827 3.90729 23.4153 2.37328 23.234 0.747417V0.0432129H16.9005V21.9215C16.9018 22.8923 16.5527 23.8388 15.9026 24.627C15.2526 25.4152 14.3345 26.0051 13.2785 26.3132C12.2225 26.6212 11.0821 26.6318 10.0189 26.3434C8.95561 26.055 8.02337 25.4823 7.35423 24.7063C6.75474 24.0195 6.38765 23.2001 6.29446 22.3409C6.20128 21.4816 6.38573 20.6168 6.82694 19.8441C7.26816 19.0715 7.94854 18.4219 8.79114 17.9688C9.63375 17.5157 10.605 17.2772 11.595 17.2802C12.1425 17.2775 12.6873 17.3476 13.2105 17.4883V11.8866C12.6016 11.8209 11.988 11.7942 11.3747 11.8066C9.11535 11.8592 6.92266 12.4851 5.06512 13.6076C3.20757 14.73 1.7658 16.3004 0.916339 18.1263C0.0668805 19.9522 -0.153388 21.9544 0.282505 23.8878C0.718399 25.8212 1.79154 27.6018 3.3705 29.0116C4.98875 30.4459 7.05956 31.4285 9.31983 31.8345C11.5801 32.2405 13.9278 32.0515 16.0646 31.2916C18.2013 30.5317 20.0308 29.2352 21.3204 27.5668C22.6101 25.8984 23.3017 23.9334 23.3075 21.9215V10.7183C25.8619 12.3091 28.9251 13.16 32.0643 13.151V7.70943C31.4477 7.71165 30.8324 7.65801 30.2285 7.54938H30.1551Z" fill="white"/>
</svg>
