<svg width="33" height="33" viewBox="0 0 33 33" fill="none" xmlns="http://www.w3.org/2000/svg">
<path d="M31.4718 0.0432129H2.03183C1.32383 0.0432129 0.751831 0.615213 0.751831 1.32321V30.7632C0.751831 31.4712 1.32383 32.0432 2.03183 32.0432H31.4718C32.1798 32.0432 32.7518 31.4712 32.7518 30.7632V1.32321C32.7518 0.615213 32.1798 0.0432129 31.4718 0.0432129ZM25.3638 11.6312C25.3758 11.8192 25.3758 12.0152 25.3758 12.2072C25.3758 18.0792 20.9038 24.8432 12.7318 24.8432C10.2118 24.8432 7.87583 24.1112 5.90783 22.8512C6.26783 22.8912 6.61183 22.9072 6.97983 22.9072C9.05983 22.9072 10.9718 22.2032 12.4958 21.0112C10.5438 20.9712 8.90383 19.6912 8.34383 17.9312C9.02783 18.0312 9.64383 18.0312 10.3478 17.8512C9.34274 17.647 8.43933 17.1011 7.7911 16.3063C7.14286 15.5115 6.78978 14.5168 6.79183 13.4912V13.4352C7.37983 13.7672 8.07183 13.9712 8.79583 13.9992C8.1872 13.5936 7.68806 13.0441 7.34268 12.3993C6.99729 11.7546 6.81632 11.0346 6.81583 10.3032C6.81583 9.47521 7.03183 8.71921 7.41983 8.06321C8.53544 9.43656 9.92755 10.5598 11.5057 11.3599C13.0838 12.16 14.8127 12.619 16.5798 12.7072C15.9518 9.68721 18.2078 7.24321 20.9198 7.24321C22.1998 7.24321 23.3518 7.77921 24.1638 8.64321C25.1678 8.45521 26.1278 8.07921 26.9838 7.57521C26.6518 8.60321 25.9558 9.47121 25.0318 10.0192C25.9278 9.92321 26.7918 9.67521 27.5918 9.32721C26.9878 10.2152 26.2318 11.0032 25.3638 11.6312V11.6312Z" fill="white"/>
</svg>
