<svg width="124" height="82" viewBox="0 -30 124 142" fill="none" xmlns="http://www.w3.org/2000/svg">
<path d="M4.83911 38.8307L14.0982 43.4087L63.7171 14.7604L64.3817 4.45276M119.839 97.9007H5.24592L98.4675 46.3337H119.839V97.9007Z" stroke="#828D00" stroke-width="8" stroke-miterlimit="2" stroke-linecap="round" stroke-linejoin="round"/>
<path d="M30.7141 59.914C32.9935 59.914 35.1796 59.0085 36.7913 57.3967C38.4031 55.7849 39.3086 53.5989 39.3086 51.3195C39.3086 49.0401 38.4031 46.854 36.7913 45.2423C35.1796 43.6305 32.9935 42.725 30.7141 42.725C28.4347 42.725 26.2487 43.6305 24.6369 45.2423C23.0251 46.854 22.1196 49.0401 22.1196 51.3195C22.1196 53.5989 23.0251 55.7849 24.6369 57.3967C26.2487 59.0085 28.4347 59.914 30.7141 59.914ZM62.571 42.725C64.8504 42.725 67.0365 41.8195 68.6483 40.2077C70.26 38.5959 71.1655 36.4099 71.1655 34.1305C71.1655 31.8511 70.26 29.6651 68.6483 28.0533C67.0365 26.4415 64.8504 25.536 62.571 25.536C60.2916 25.536 58.1056 26.4415 56.4938 28.0533C54.882 29.6651 53.9765 31.8511 53.9765 34.1305C53.9765 36.4099 54.882 38.5959 56.4938 40.2077C58.1056 41.8195 60.2916 42.725 62.571 42.725Z" fill="#828D00"/>
</svg>
