<svg width="127" height="185" viewBox="0 -25 107 195" fill="none" xmlns="http://www.w3.org/2000/svg">
<path d="M62.8511 12.8018C62.8511 5.92676 68.4761 0.301758 75.3511 0.301758C82.2261 0.301758 87.8511 5.92676 87.8511 12.8018C87.8511 19.6768 82.2261 25.3018 75.3511 25.3018C68.4761 25.3018 62.8511 19.6768 62.8511 12.8018ZM26.9136 134.677C24.3511 134.677 22.2261 136.802 22.2261 139.364C22.2261 141.927 24.3511 144.052 26.9136 144.052C29.4761 144.052 31.6011 141.927 31.6011 139.364C31.6011 136.802 29.4761 134.677 26.9136 134.677ZM80.0386 134.677C77.4761 134.677 75.3511 136.802 75.3511 139.364C75.3511 141.927 77.4761 144.052 80.0386 144.052C82.6011 144.052 84.7261 141.927 84.7261 139.364C84.7261 136.802 82.6011 134.677 80.0386 134.677ZM101.851 112.802C101.131 112.797 100.421 112.964 99.7791 113.29C99.1375 113.617 98.5835 114.092 98.1636 114.677C94.7261 119.239 89.2886 122.177 83.1636 122.177H81.6011V84.6768L54.6011 67.9893L65.8511 49.9268C69.5067 55.7798 74.5916 60.6063 80.6271 63.9521C86.6626 67.2979 93.4502 69.0528 100.351 69.0518V56.5518C88.7886 56.5518 78.8511 49.5518 74.5386 39.5518L71.2886 31.9893C70.1011 29.3018 66.6636 25.3018 60.9761 25.3018H25.3511L9.72608 50.3018L20.3511 56.9268L32.2261 37.8018H46.9136L31.9136 61.8018C29.9761 64.9268 29.4761 68.7393 30.6011 72.2393L38.9761 98.1768L19.4761 121.677C15.1011 120.677 11.3511 118.114 8.78857 114.677C8.41923 114.184 7.95651 113.769 7.42683 113.456C6.89714 113.142 6.31087 112.936 5.70149 112.849C5.0921 112.762 4.47154 112.796 3.87523 112.948C3.27891 113.101 2.71853 113.37 2.22607 113.739C1.73362 114.109 1.31873 114.571 1.0051 115.101C0.69147 115.631 0.485241 116.217 0.398186 116.826C0.311131 117.436 0.344956 118.056 0.497729 118.653C0.650502 119.249 0.919232 119.809 1.28858 120.302C6.41358 127.177 14.6011 131.552 23.7886 131.552H83.1636C92.3511 131.552 100.539 127.177 105.664 120.302C106.289 119.427 106.601 118.427 106.601 117.489C106.601 115.052 104.601 112.802 101.851 112.802ZM69.1011 122.177H35.3511L53.4761 100.302L47.2261 79.6768L69.1011 93.4268V122.177Z" fill="#828D00"/>
</svg>
