<svg width="102" height="76" viewBox="0 -35 102 136" fill="none" xmlns="http://www.w3.org/2000/svg">
<path d="M48.981 62.7206C51.3672 66.8535 49.9571 72.1159 45.8242 74.5021C41.6913 76.8882 36.4288 75.4782 34.0427 71.3452C31.6565 67.2123 33.0666 61.9499 37.1995 59.5637C41.3325 57.1776 46.5949 58.5876 48.981 62.7206ZM82.0146 33.6898C77.8816 36.0759 76.4716 41.3383 78.8577 45.4712C81.2439 49.6042 86.5063 51.0142 90.6392 48.6281C94.7722 46.2419 96.1822 40.9795 93.7961 36.8466C91.4099 32.7136 86.1475 31.3036 82.0146 33.6898ZM96.4066 0.0848832C93.2459 -0.214839 90.3466 2.12303 90.0679 5.2052L89.938 6.47524C89.7892 8.28738 88.6768 9.92551 87.1332 10.8167L14.8316 52.5601C13.288 53.4513 11.3629 53.5668 9.66935 52.8184L8.50454 52.2958C5.69596 50.9961 2.22162 52.3381 0.900836 55.2252C-0.448701 58.0625 0.971826 61.5579 3.8302 62.8289L4.99501 63.3515C9.99716 65.5757 15.8509 65.2501 20.5814 62.519L92.883 20.7756C97.6134 18.0445 100.822 13.1378 101.397 7.69368L101.527 6.42364C101.855 3.31272 99.5386 0.334815 96.4066 0.0848832Z" fill="#828D00"/>
</svg>
